<svg width="102" height="112" viewBox="0 0 102 112" fill="none" xmlns="http://www.w3.org/2000/svg">
<rect width="102" height="112" />
<path d="M44.8414 68.2279C44.5581 68.5859 44.4089 68.992 44.4088 69.4053L44.4337 89.9042C44.4337 89.9042 44.4337 91.7026 46.9008 91.7026H58.4141C60.8813 91.7026 60.8813 89.9042 60.8813 89.9042V55.6869C60.8809 55.1348 60.8809 55.1348 61.2165 55.6869L85.5526 89.9042C86.3749 91.1032 86.7861 91.7026 88.0196 91.7026H99.5329C99.5329 91.7026 102 91.7026 102 89.9043V33.5537C102 33.5537 102 31.7553 99.5329 31.7553L88.0196 31.7554C88.0196 31.7554 85.5525 31.7554 85.5525 33.5538V67.038C85.5525 67.038 85.5522 68.9226 83.9074 67.1242L68.4954 45.5618C68.2259 45.1884 67.8239 44.8745 67.3312 44.6528C66.8386 44.4312 66.2734 44.31 65.6946 44.3019C65.1159 44.2938 64.5447 44.399 64.0407 44.6066C63.5367 44.8141 63.1183 45.1165 62.8292 45.4821L44.8414 68.2279Z" fill="white"/>
<path fill-rule="evenodd" clip-rule="evenodd" d="M37.5785 78.962L2.46724 79.1214C2.46724 79.1214 0 79.1214 0 77.323L0.000105198 20.9725C0.000105198 19.1741 2.46724 19.1741 2.46724 19.1741H39.4741C39.4741 19.1741 53.4594 19.1741 53.4594 29.3622V40.1556C53.4594 40.1556 53.4594 49.1478 41.1188 49.1478C41.1188 49.1478 53.4594 49.1478 53.4545 58.1399L37.5785 78.962ZM15.6268 28.7551H31.0291C34.7857 28.7551 37.831 31.8004 37.831 35.557V36.9401C37.831 40.6966 34.7857 43.742 31.0291 43.742H15.6268V28.7551ZM31.0291 54.5344H15.6268V69.5212H31.0291C34.7857 69.5212 37.831 66.4759 37.831 62.7193V61.3363C37.831 57.5797 34.7857 54.5344 31.0291 54.5344Z" fill="white"/>
<path d="M49.1332 0C125.919 43.0096 -0.920045 72.2596 53.1852 111.488C-13.0407 67.6709 106.685 44.1339 49.1332 0Z" fill="#FFDC00"/>
</svg>
