<svg width="24" height="25" viewBox="0 0 24 25" fill="none" xmlns="http://www.w3.org/2000/svg">
<g clip-path="url(#clip0_3_136)">
<path d="M17.94 18.4283C16.2306 19.7313 14.1491 20.4531 12 20.4883C5 20.4883 1 12.4883 1 12.4883C2.24389 10.1702 3.96914 8.14488 6.06 6.54828M9.9 4.72828C10.5883 4.56716 11.2931 4.48661 12 4.48828C19 4.48828 23 12.4883 23 12.4883C22.393 13.6239 21.6691 14.693 20.84 15.6783M14.12 14.6083C13.8454 14.903 13.5141 15.1394 13.1462 15.3034C12.7782 15.4674 12.3809 15.5555 11.9781 15.5626C11.5753 15.5697 11.1752 15.4957 10.8016 15.3448C10.4281 15.1939 10.0887 14.9693 9.80385 14.6844C9.51897 14.3996 9.29439 14.0602 9.14351 13.6867C8.99262 13.3131 8.91853 12.913 8.92563 12.5102C8.93274 12.1074 9.02091 11.7101 9.18488 11.3421C9.34884 10.9741 9.58525 10.6429 9.88 10.3683" stroke="#03989F" stroke-width="2" stroke-linecap="round" stroke-linejoin="round"/>
<path d="M1 1.48828L23 23.4883" stroke="#03989F" stroke-width="2" stroke-linecap="round" stroke-linejoin="round"/>
</g>
<defs>
<clipPath id="clip0_3_136">
<rect width="24" height="24" fill="white" transform="translate(0 0.488281)"/>
</clipPath>
</defs>
</svg>
