<svg width="25" height="16" viewBox="0 0 25 16" fill="none" xmlns="http://www.w3.org/2000/svg">
<path d="M24.6667 5.33332V0.799996C24.6667 0.358148 24.3104 0 23.871 0H0.795704L0.369385 0.799996V5.33332L1.19341 6.40001H23.4732L24.6667 5.33332Z" fill="#FF9700"/>
<path d="M0 0.799995V5.33332L0.795693 6.04453V0C0.35627 0 0 0.358148 0 0.799995Z" fill="#EA6C00"/>
<path d="M0.376465 10.6665V14.8529C0.376465 15.2948 0.732734 15.6529 1.17216 15.6529H23.8708L24.6665 15.1998V10.6665L23.4732 9.59979H1.1934L0.376465 10.6665Z" fill="#2EAA01"/>
<path d="M0.795693 12.7999V9.95547L0 10.6666V15.1999C0 15.6418 0.35627 15.9999 0.795693 15.9999H23.871C24.3104 15.9999 24.6667 15.6418 24.6667 15.1999H3.18282C1.86445 15.1999 0.795693 14.1254 0.795693 12.7999Z" fill="#01C60A"/>
<path d="M0.41748 9.98581L0.795622 10.6665H24.6666V5.33319H0.795622L0.41748 6.17537V9.98581Z" fill="#F2F2F6"/>
<path d="M0 5.33319H0.795693V10.6665H0V5.33319Z" fill="#E1E1E6"/>
<path d="M13.8077 7.08309C13.6661 6.85378 13.4732 6.65984 13.2451 6.51748L12.7311 7.03426V6.30305C12.6032 6.27277 12.4702 6.25626 12.3333 6.25626C12.1963 6.25626 12.0633 6.27277 11.9354 6.3031V7.03431L11.4215 6.51753C11.1933 6.65984 11.0004 6.85383 10.8588 7.08313L11.3729 7.60006H10.6454C10.6153 7.72856 10.5989 7.86235 10.5989 8.00001C10.5989 8.13767 10.6153 8.27145 10.6455 8.40001H11.3729L10.8589 8.91693C11.0005 9.14624 11.1934 9.34018 11.4215 9.48254L11.9355 8.96576V9.69697C12.0633 9.72725 12.1964 9.74381 12.3333 9.74381C12.4702 9.74381 12.6033 9.72729 12.7311 9.69697V8.96576L13.2451 9.48254C13.4732 9.34023 13.6661 9.14628 13.8077 8.91693L13.2937 8.40001H14.0211C14.0512 8.27145 14.0677 8.13767 14.0677 8.00001C14.0677 7.86235 14.0513 7.72857 14.0211 7.60001H13.2937L13.8077 7.08309Z" fill="#5055A0"/>
<path d="M12.3334 10.3998C11.017 10.3998 9.94629 9.32319 9.94629 7.99978C9.94629 6.67637 11.0171 5.59979 12.3334 5.59979C13.6497 5.59979 14.7204 6.67637 14.7204 7.99978C14.7204 9.32319 13.6497 10.3998 12.3334 10.3998ZM12.3334 6.39979C11.4557 6.39979 10.742 7.11758 10.742 7.99978C10.742 8.88197 11.4557 9.59977 12.3334 9.59977C13.211 9.59977 13.9248 8.88197 13.9248 7.99978C13.9248 7.11758 13.2111 6.39979 12.3334 6.39979Z" fill="#3F3F8F"/>
</svg>
