<svg width="47" height="46" viewBox="0 0 47 46" fill="none" xmlns="http://www.w3.org/2000/svg">
<path d="M46.2139 19.1573L45.1385 21.8211C44.7986 22.7276 44.7986 23.6914 45.1385 24.598L46.2139 27.2618C46.8365 28.8486 46.3267 30.663 44.9115 31.6828L42.5337 33.3268C41.7424 33.8939 41.2326 34.7433 41.0055 35.6498L40.497 38.484C40.1572 40.1853 38.7419 41.4313 37.0439 41.4886L34.1563 41.6017C33.1937 41.6589 32.2883 42.0556 31.6098 42.7359L29.6277 44.8326C28.4394 46.0799 26.5715 46.3622 25.0991 45.5128L22.6085 44.0392C21.7601 43.5293 20.7976 43.4149 19.835 43.6425L17.0045 44.3227C15.3635 44.7194 13.6084 43.926 12.8158 42.3951L11.5147 39.7886C11.062 38.9379 10.3252 38.2577 9.41971 37.9741L6.70335 37.0676C5.06108 36.5005 4.04277 34.9136 4.2127 33.2137L4.49549 30.3223C4.60835 29.3585 4.32556 28.396 3.7029 27.6585L1.89199 25.3914C0.815301 24.0309 0.815301 22.1605 1.89199 20.8L3.7029 18.533C4.32556 17.7968 4.60835 16.833 4.49549 15.8692L4.2127 12.9791C4.04277 11.2778 5.06108 9.69098 6.70335 9.12519L9.41971 8.21732C10.3252 7.93377 11.062 7.25482 11.5147 6.40418L12.8158 3.79633C13.6084 2.26674 15.3065 1.47333 17.0045 1.87003L19.835 2.55029C20.7405 2.7766 21.7601 2.66345 22.6085 2.15358L25.0991 0.679918C26.5715 -0.170722 28.4394 0.0555949 29.6277 1.36017L31.6098 3.45686C32.2883 4.13711 33.1937 4.58974 34.1563 4.58974L37.0439 4.7042C38.7419 4.76013 40.2129 6.00748 40.497 7.70746L41.0055 10.5416C41.1755 11.5054 41.7424 12.3548 42.5337 12.8659L44.9115 14.5087C46.3267 15.756 46.8923 17.5692 46.2139 19.1573Z" fill="#05B44B"/>
<mask id="mask0_0_705" style="mask-type:luminance" maskUnits="userSpaceOnUse" x="0" y="0" width="39" height="46">
<path d="M0.5 0H38.2922V45.8645H0.5V0Z" fill="white"/>
</mask>
<g mask="url(#mask0_0_705)">
<mask id="mask1_0_705" style="mask-type:luminance" maskUnits="userSpaceOnUse" x="-272" y="-176" width="375" height="370">
<path d="M102.034 -175.261H-271.718V193.569H102.034V-175.261Z" fill="black" fill-opacity="0.149"/>
</mask>
<g mask="url(#mask1_0_705)">
<mask id="mask2_0_705" style="mask-type:luminance" maskUnits="userSpaceOnUse" x="0" y="-1" width="39" height="47">
<path d="M38.2857 -0.00140381H0.168213V45.8631H38.2857V-0.00140381Z" fill="white"/>
</mask>
<g mask="url(#mask2_0_705)">
<path d="M14.229 41.895L12.9177 39.312C12.4618 38.4691 11.7213 37.795 10.8096 37.514L8.07331 36.6156C6.42108 36.0537 5.39448 34.4812 5.56558 32.7966L5.85031 29.9314C5.96525 28.9776 5.67921 28.0225 5.05228 27.2917L3.22895 25.0451C2.14619 23.6969 2.14619 21.8435 3.22895 20.4965L5.05228 18.25C5.67921 17.5192 5.96525 16.5641 5.85031 15.609L5.56558 12.745C5.39448 11.0604 6.42108 9.48798 8.07331 8.92601L10.8096 8.02764C11.7213 7.74666 12.4618 7.07256 12.9177 6.22962L14.229 3.64664C14.6848 2.74699 15.4829 2.1296 16.3371 1.84862C14.7985 1.62435 13.2599 2.41058 12.5755 3.8142L11.2654 6.39846C10.8096 7.24141 10.0677 7.91422 9.15607 8.1952L6.42108 9.09486C4.76755 9.65554 3.74225 11.228 3.91335 12.9139L4.19808 15.7779C4.31171 16.7329 4.02698 17.688 3.40005 18.4175L1.57672 20.6641C0.492654 22.0123 0.492654 23.8658 1.57672 25.214L3.40005 27.4605C4.02698 28.1913 4.31171 29.1451 4.19808 30.1002L3.91335 32.9655C3.74225 34.6501 4.76755 36.2225 6.42108 36.7845L9.15607 37.6829C10.0677 37.9638 10.8096 38.6379 11.2654 39.4809L12.5755 42.0639C13.3735 43.5809 15.0832 44.3671 16.7929 43.974L17.1351 43.9173C15.8812 43.693 14.7985 43.0189 14.229 41.895Z" fill="black"/>
<mask id="mask3_0_705" style="mask-type:luminance" maskUnits="userSpaceOnUse" x="21" y="0" width="7" height="3">
<path d="M21.5662 0.000610352H27.2503V2.63901H21.5662V0.000610352Z" fill="white"/>
</mask>
<g mask="url(#mask3_0_705)">
<path d="M24.0283 2.01717L26.536 0.556831C26.7646 0.444696 26.9918 0.332561 27.2204 0.275849C26.4224 0.163714 25.5669 0.332561 24.8838 0.725679L22.3761 2.18601C22.1475 2.29815 21.9202 2.41028 21.6917 2.4657C22.4897 2.57913 23.2877 2.4657 24.0283 2.01717Z" fill="black"/>
</g>
<path d="M35.6564 41.0539C35.3717 41.0539 35.087 41.1093 34.8584 41.166L36.9103 41.0539C37.195 41.0539 37.4236 40.9972 37.7083 40.9418L35.6564 41.0539Z" fill="black"/>
<path d="M26.5345 44.9273L24.0267 43.467C23.1726 42.9617 22.2034 42.8496 21.2343 43.0739L20.8921 43.1306C21.4054 43.1873 21.8612 43.3548 22.3171 43.5804L24.8248 45.0407C25.7939 45.6014 26.8767 45.6581 27.9033 45.3204C27.4461 45.3204 26.9903 45.2083 26.5345 44.9273Z" fill="black"/>
</g>
</g>
</g>
<path d="M14.7097 19.4654L21.9109 27.0726L36.6605 16.1147" fill="#05B44B"/>
<path d="M20.0959 32.0524C19.3031 32.0524 18.5103 31.7025 17.9446 31.0603L10.8665 22.7046C9.84788 21.4778 9.96077 19.6664 11.0935 18.5562C12.2821 17.5051 14.0377 17.6217 15.1133 18.7895L20.4359 25.0415L32.8353 14.7592C34.0251 13.7657 35.8365 13.9413 36.7993 15.2258C37.7621 16.5116 37.5921 18.3229 36.3464 19.3165L21.8515 31.4102C21.3416 31.8191 20.7188 32.0524 20.0959 32.0524Z" fill="white"/>
</svg>
